<svg width="12" height="12" viewBox="0 0 12 12" fill="none" xmlns="http://www.w3.org/2000/svg">
<path d="M1 1.5H4C4.53043 1.5 5.03914 1.71071 5.41421 2.08579C5.78929 2.46086 6 2.96957 6 3.5V10.5C6 10.1022 5.84196 9.72064 5.56066 9.43934C5.27936 9.15804 4.89782 9 4.5 9H1V1.5Z" stroke="#858699" stroke-linecap="round" stroke-linejoin="round"/>
<path d="M11 1.5H8C7.46957 1.5 6.96086 1.71071 6.58579 2.08579C6.21071 2.46086 6 2.96957 6 3.5V10.5C6 10.1022 6.15804 9.72064 6.43934 9.43934C6.72064 9.15804 7.10218 9 7.5 9H11V1.5Z" stroke="#858699" stroke-linecap="round" stroke-linejoin="round"/>
</svg>
