<svg width="12" height="12" viewBox="0 0 12 12" fill="none" xmlns="http://www.w3.org/2000/svg">
<path d="M10.1568 2.15859C9.38031 1.79993 8.55329 1.53566 7.68207 1.38464C7.57475 1.57341 7.44848 1.83139 7.36641 2.03904C6.44469 1.90061 5.52928 1.90061 4.62651 2.03904C4.53813 1.83139 4.41186 1.57341 4.30454 1.38464C3.43332 1.53566 2.6063 1.79993 1.82978 2.15859C0.264117 4.5119 -0.158865 6.80859 0.0494692 9.06752C1.09114 9.84146 2.09493 10.3071 3.0861 10.6154C3.33231 10.2819 3.54696 9.92326 3.73635 9.55202C3.3765 9.41988 3.03559 9.24999 2.71362 9.05493C2.80201 8.99201 2.88408 8.92279 2.96615 8.85987C4.94216 9.77854 7.08232 9.77854 9.03309 8.85987C9.11516 8.92909 9.19723 8.99201 9.28561 9.05493C8.96364 9.24999 8.61642 9.41359 8.26288 9.55202C8.45228 9.92326 8.66692 10.2819 8.91314 10.6154C9.9043 10.3071 10.9144 9.84146 11.9498 9.06752C12.196 6.44364 11.5268 4.17212 10.1695 2.15859H10.1568ZM4.00151 7.68322C3.40807 7.68322 2.92196 7.13579 2.92196 6.46252C2.92196 5.78925 3.39544 5.24182 4.00151 5.24182C4.60757 5.24182 5.08736 5.78925 5.08105 6.46252C5.08105 7.1295 4.60757 7.68322 4.00151 7.68322ZM7.9851 7.68322C7.39167 7.68322 6.90555 7.13579 6.90555 6.46252C6.90555 5.78925 7.37904 5.24182 7.9851 5.24182C8.59117 5.24182 9.07097 5.78925 9.06465 6.46252C9.06465 7.1295 8.59117 7.68322 7.9851 7.68322Z" fill="#858699"/>
</svg>
