<svg width="14" height="14" viewBox="0 0 14 14" fill="none" xmlns="http://www.w3.org/2000/svg">
<path d="M3 1V9" stroke="#858699" stroke-linecap="round" stroke-linejoin="round"/>
<path d="M11 5C12.1046 5 13 4.10457 13 3C13 1.89543 12.1046 1 11 1C9.89543 1 9 1.89543 9 3C9 4.10457 9.89543 5 11 5Z" stroke="#858699" stroke-linecap="round" stroke-linejoin="round"/>
<path d="M3 13C4.10457 13 5 12.1046 5 11C5 9.89543 4.10457 9 3 9C1.89543 9 1 9.89543 1 11C1 12.1046 1.89543 13 3 13Z" stroke="#858699" stroke-linecap="round" stroke-linejoin="round"/>
<path d="M11 5C11 6.5913 10.3679 8.11742 9.24264 9.24264C8.11742 10.3679 6.5913 11 5 11" stroke="#858699" stroke-linecap="round" stroke-linejoin="round"/>
</svg>
