<svg width="12" height="12" viewBox="0 0 12 12" fill="none" xmlns="http://www.w3.org/2000/svg">
<path fill-rule="evenodd" clip-rule="evenodd" d="M12 12H9.6V7.80059C9.6 6.64859 9.0918 6.00586 8.1804 6.00586C7.1886 6.00586 6.6 6.67559 6.6 7.80059V12H4.2V4.2H6.6V5.07715C6.6 5.07715 7.353 3.75586 9.0498 3.75586C10.7472 3.75586 12 4.79166 12 6.93486V12ZM1.4652 2.95254C0.655801 2.95254 0 2.29138 0 1.47598C0 0.661177 0.655801 0 1.4652 0C2.274 0 2.9298 0.661177 2.9298 1.47598C2.9304 2.29138 2.274 2.95254 1.4652 2.95254ZM0 12H3V4.2H0V12Z" fill="#858699"/>
</svg>
