<svg width="14" height="14" viewBox="0 0 14 14" fill="none" xmlns="http://www.w3.org/2000/svg">
<path d="M11 13C12.1046 13 13 12.1046 13 11C13 9.89543 12.1046 9 11 9C9.89543 9 9 9.89543 9 11C9 12.1046 9.89543 13 11 13Z" stroke="#858699" stroke-linecap="round" stroke-linejoin="round"/>
<path d="M3 5C4.10457 5 5 4.10457 5 3C5 1.89543 4.10457 1 3 1C1.89543 1 1 1.89543 1 3C1 4.10457 1.89543 5 3 5Z" stroke="#858699" stroke-linecap="round" stroke-linejoin="round"/>
<path d="M7.66666 3H9.66666C10.0203 3 10.3594 3.14048 10.6095 3.39052C10.8595 3.64057 11 3.97971 11 4.33333V9" stroke="#858699" stroke-linecap="round" stroke-linejoin="round"/>
<path d="M3 5V13" stroke="#858699" stroke-linecap="round" stroke-linejoin="round"/>
</svg>
