<svg width="13" height="12" viewBox="0 0 13 12" fill="none" xmlns="http://www.w3.org/2000/svg">
<path fill-rule="evenodd" clip-rule="evenodd" d="M8.37673 7.64856C7.91953 7.64856 7.53613 7.27316 7.53613 6.81008C7.53613 6.34639 7.91953 5.95872 8.37673 5.95872C8.83333 5.95872 9.20353 6.34639 9.20353 6.81008C9.20353 7.27316 8.83393 7.64856 8.37673 7.64856ZM8.49313 9.19778C8.08933 9.60671 7.45633 9.80569 6.55873 9.80569C5.66053 9.80569 5.02813 9.60671 4.62493 9.19778C4.53733 9.10894 4.53733 8.96526 4.62493 8.87581C4.71193 8.78696 4.85413 8.78696 4.94173 8.87581C5.25673 9.19528 5.78533 9.351 6.55873 9.351C7.33153 9.351 7.86073 9.19528 8.17633 8.87581C8.26333 8.78696 8.40553 8.78696 8.49313 8.87581C8.58073 8.96526 8.58073 9.10894 8.49313 9.19778ZM3.91453 6.81008C3.91453 6.347 4.29733 5.95872 4.75393 5.95872C5.21053 5.95872 5.58073 6.347 5.58073 6.81008C5.58073 7.27316 5.21053 7.64856 4.75393 7.64856C4.29733 7.64856 3.91453 7.27316 3.91453 6.81008ZM12.5593 5.88811C12.5593 5.12807 11.9497 4.50969 11.2003 4.50969C10.8547 4.50969 10.5289 4.64045 10.2793 4.87473C9.38233 4.28264 8.18113 3.89991 6.85093 3.84758L7.58473 1.5762L9.51193 2.03616C9.51253 2.66172 10.0141 3.16995 10.6309 3.16995C11.2477 3.16995 11.7499 2.66055 11.7499 2.03499C11.7499 1.40943 11.2477 0.900024 10.6309 0.900024C10.1689 0.900024 9.77233 1.18467 9.60133 1.59055C9.18613 1.49136 7.70173 1.13661 7.28653 1.03743L6.38053 3.8429C4.99993 3.86906 3.74893 4.24989 2.81833 4.85598C2.57173 4.63387 2.25253 4.50969 1.91773 4.50969C1.16893 4.50969 0.559326 5.12807 0.559326 5.88811C0.559326 6.37067 0.807726 6.81288 1.20493 7.06116C0.843126 9.2287 3.36133 11.1 6.53413 11.1C9.69373 11.1 12.2035 9.24529 11.8687 7.0887C12.2935 6.84711 12.5593 6.3944 12.5593 5.88811Z" fill="#858699"/>
</svg>
