<svg width="12" height="12" viewBox="0 0 12 12" fill="none" xmlns="http://www.w3.org/2000/svg">
<path d="M11.5 2V5H8.5" stroke="#858699" stroke-linecap="round" stroke-linejoin="round"/>
<path d="M0.5 10V7H3.5" stroke="#858699" stroke-linecap="round" stroke-linejoin="round"/>
<path d="M1.755 4.49998C2.00858 3.78337 2.43957 3.14268 3.00773 2.63769C3.5759 2.13269 4.26273 1.77986 5.00414 1.61211C5.74555 1.44435 6.51738 1.46715 7.2476 1.67836C7.97781 1.88958 8.64263 2.28233 9.18 2.81998L11.5 4.99998M0.5 6.99998L2.82 9.17998C3.35737 9.71762 4.02219 10.1104 4.7524 10.3216C5.48262 10.5328 6.25445 10.5556 6.99586 10.3878C7.73727 10.2201 8.4241 9.86726 8.99227 9.36227C9.56043 8.85727 9.99142 8.21658 10.245 7.49998" stroke="#858699" stroke-linecap="round" stroke-linejoin="round"/>
</svg>
