<svg width="12" height="12" viewBox="0 0 12 12" fill="none" xmlns="http://www.w3.org/2000/svg">
<path fill-rule="evenodd" clip-rule="evenodd" d="M1.26086 8.84398C1.5949 8.84307 1.91499 8.70992 2.15111 8.47363C2.38724 8.23735 2.52018 7.91717 2.52086 7.58312V6.32312H1.26086C0.926962 6.3238 0.606911 6.45662 0.37065 6.69256C0.13439 6.9285 0.00113193 7.24837 0 7.58227C0.000857143 8.27741 0.564857 8.84141 1.26 8.84227L1.26086 8.84398ZM4.41686 6.32227C4.08281 6.32317 3.76272 6.45633 3.5266 6.69261C3.29048 6.9289 3.15754 7.24908 3.15686 7.58312V10.74C3.15857 11.4351 3.72257 11.9983 4.41686 12C4.75075 11.9991 5.07071 11.866 5.30681 11.6299C5.54291 11.3938 5.67595 11.0739 5.67686 10.74V7.58227C5.67595 7.24837 5.54291 6.92841 5.30681 6.69231C5.07071 6.45621 4.75075 6.32317 4.41686 6.32227Z" fill="#E01E5A"/>
<path fill-rule="evenodd" clip-rule="evenodd" d="M3.15686 1.26086C3.15771 1.956 3.72171 2.52 4.41686 2.52086H5.67686V1.26086C5.67618 0.926962 5.54336 0.606911 5.30742 0.37065C5.07148 0.13439 4.75161 0.00113193 4.41771 0C4.08382 0.000904868 3.76386 0.133945 3.52776 0.370045C3.29166 0.606145 3.15862 0.926105 3.15771 1.26L3.15686 1.26086ZM5.67686 4.41686C5.67595 4.08296 5.54291 3.763 5.30681 3.5269C5.07071 3.2908 4.75075 3.15776 4.41686 3.15686H1.26C0.926105 3.15776 0.606145 3.2908 0.370045 3.5269C0.133945 3.763 0.000904868 4.08296 0 4.41686C0.00171429 5.11286 0.565714 5.676 1.26 5.67686H4.41771C4.75161 5.67595 5.07157 5.54291 5.30767 5.30681C5.54377 5.07071 5.67595 4.75075 5.67686 4.41686Z" fill="#36C5F0"/>
<path fill-rule="evenodd" clip-rule="evenodd" d="M7.5833 5.67771C7.9172 5.67681 8.23716 5.54377 8.47326 5.30767C8.70936 5.07157 8.8424 4.75161 8.8433 4.41771V1.26C8.8424 0.926253 8.70947 0.606422 8.47356 0.370346C8.23764 0.134271 7.9179 0.00113089 7.58416 0C7.25026 0.000904868 6.9303 0.133945 6.6942 0.370045C6.4581 0.606145 6.32506 0.926105 6.32416 1.26V4.41771C6.32587 5.112 6.88816 5.676 7.5833 5.67771ZM10.7393 3.15686C10.4054 3.15776 10.0854 3.2908 9.84935 3.5269C9.61325 3.763 9.48021 4.08296 9.4793 4.41686V5.67686H10.7393C11.0732 5.67618 11.3932 5.54336 11.6295 5.30742C11.8658 5.07148 11.999 4.75161 12.0002 4.41771C11.9993 4.08382 11.8662 3.76386 11.6301 3.52776C11.394 3.29166 11.0741 3.15862 10.7402 3.15771L10.7393 3.15686Z" fill="#2EB67D"/>
<path fill-rule="evenodd" clip-rule="evenodd" d="M6.32309 7.5833C6.3248 8.27844 6.88795 8.84244 7.58309 8.8433H10.7399C11.0737 8.8424 11.3935 8.70947 11.6296 8.47356C11.8657 8.23764 11.9988 7.9179 11.9999 7.58416C11.999 7.25026 11.866 6.9303 11.6299 6.6942C11.3938 6.4581 11.0738 6.32506 10.7399 6.32416H7.58309C7.2492 6.32506 6.92924 6.4581 6.69314 6.6942C6.45704 6.9303 6.32399 7.24941 6.32309 7.5833ZM8.84309 10.7393C8.84219 10.4054 8.70914 10.0854 8.47304 9.84935C8.23694 9.61325 7.91698 9.48021 7.58309 9.4793H6.32309V10.7393C6.3248 11.4353 6.88795 11.9984 7.58309 11.9993C7.91698 11.9984 8.23694 11.8654 8.47304 11.6293C8.70914 11.3932 8.84219 11.0732 8.84309 10.7393Z" fill="#ECB22E"/>
</svg>
