<svg width="12" height="12" viewBox="0 0 12 12" fill="none" xmlns="http://www.w3.org/2000/svg">
<path fill-rule="evenodd" clip-rule="evenodd" d="M1.26086 8.84398C1.5949 8.84308 1.91499 8.70992 2.15112 8.47363C2.38724 8.23735 2.52018 7.91717 2.52086 7.58312V6.32312H1.26086C0.926964 6.3238 0.606912 6.45662 0.370651 6.69256C0.13439 6.9285 0.00113193 7.24837 0 7.58227C0.000857144 8.27741 0.564858 8.84141 1.26 8.84227L1.26086 8.84398ZM4.41686 6.32227C4.08282 6.32317 3.76273 6.45633 3.52661 6.69262C3.29048 6.9289 3.15754 7.24908 3.15686 7.58312V10.74C3.15858 11.4351 3.72258 11.9983 4.41686 12C4.75076 11.9991 5.07072 11.866 5.30682 11.6299C5.54292 11.3938 5.67596 11.0739 5.67687 10.74V7.58227C5.67596 7.24837 5.54292 6.92841 5.30682 6.69231C5.07072 6.45621 4.75076 6.32317 4.41686 6.32227Z" fill="#858699"/>
<path fill-rule="evenodd" clip-rule="evenodd" d="M3.15686 1.26086C3.15772 1.956 3.72172 2.52 4.41686 2.52086H5.67687V1.26086C5.67619 0.926964 5.54337 0.606912 5.30743 0.370651C5.07149 0.13439 4.75162 0.00113193 4.41772 0C4.08383 0.00090487 3.76387 0.133945 3.52777 0.370046C3.29167 0.606146 3.15862 0.926107 3.15772 1.26L3.15686 1.26086ZM5.67687 4.41686C5.67596 4.08297 5.54292 3.76301 5.30682 3.52691C5.07072 3.29081 4.75076 3.15777 4.41686 3.15686H1.26C0.926107 3.15777 0.606146 3.29081 0.370046 3.52691C0.133945 3.76301 0.00090487 4.08297 0 4.41686C0.00171429 5.11287 0.565715 5.67601 1.26 5.67687H4.41772C4.75162 5.67596 5.07158 5.54292 5.30768 5.30682C5.54378 5.07072 5.67596 4.75076 5.67687 4.41686Z" fill="#858699"/>
<path fill-rule="evenodd" clip-rule="evenodd" d="M7.58313 5.67772C7.91703 5.67682 8.23699 5.54378 8.47309 5.30768C8.70919 5.07158 8.84223 4.75162 8.84314 4.41772V1.26C8.84223 0.926255 8.70931 0.606423 8.47339 0.370347C8.23748 0.134271 7.91774 0.00113089 7.58399 0C7.2501 0.00090487 6.93014 0.133945 6.69404 0.370046C6.45793 0.606146 6.32489 0.926107 6.32399 1.26V4.41772C6.3257 5.11201 6.88799 5.67601 7.58313 5.67772ZM10.7391 3.15686C10.4052 3.15777 10.0853 3.29081 9.84918 3.52691C9.61308 3.76301 9.48004 4.08297 9.47914 4.41686V5.67687H10.7391C11.073 5.67619 11.3931 5.54337 11.6293 5.30743C11.8656 5.07149 11.9989 4.75162 12 4.41772C11.9991 4.08383 11.8661 3.76387 11.63 3.52777C11.3939 3.29167 11.0739 3.15862 10.74 3.15772L10.7391 3.15686Z" fill="#858699"/>
<path fill-rule="evenodd" clip-rule="evenodd" d="M6.32314 7.58306C6.32485 8.2782 6.88799 8.8422 7.58314 8.84306H10.74C11.0737 8.84216 11.3936 8.70923 11.6297 8.47332C11.8657 8.2374 11.9989 7.91766 12 7.58392C11.9991 7.25002 11.8661 6.93006 11.63 6.69396C11.3939 6.45786 11.0739 6.32482 10.74 6.32391H7.58314C7.24924 6.32482 6.92928 6.45786 6.69318 6.69396C6.45708 6.93006 6.32404 7.24916 6.32314 7.58306ZM8.84314 10.7391C8.84224 10.4052 8.70919 10.0852 8.47309 9.84911C8.23699 9.61301 7.91703 9.47997 7.58314 9.47906H6.32314V10.7391C6.32485 11.4351 6.88799 11.9982 7.58314 11.9991C7.91703 11.9982 8.23699 11.8651 8.47309 11.629C8.70919 11.3929 8.84224 11.073 8.84314 10.7391Z" fill="#858699"/>
</svg>
