<svg width="12" height="12" viewBox="0 0 12 12" fill="none" xmlns="http://www.w3.org/2000/svg">
<path fill-rule="evenodd" clip-rule="evenodd" d="M3.774 10.8C8.3022 10.8 10.779 7.10609 10.779 3.90317C10.779 3.79802 10.779 3.69366 10.7718 3.5897C11.2536 3.24707 11.6694 2.82167 12 2.33491C11.5512 2.53103 11.0742 2.65965 10.5864 2.71636C11.1 2.41331 11.4846 1.93722 11.6688 1.37544C11.1852 1.6578 10.6566 1.85709 10.1052 1.96401C9.1728 0.988131 7.6134 0.940849 6.6216 1.85884C5.9826 2.45074 5.7108 3.33327 5.9094 4.17505C3.93 4.07699 2.0856 3.15665 0.8352 1.64263C0.1818 2.75023 0.516 4.16665 1.5978 4.87788C1.206 4.86665 0.8226 4.7628 0.48 4.57495V4.60571C0.4806 5.7594 1.3068 6.75279 2.4552 6.9814C2.0928 7.07887 1.7124 7.093 1.344 7.0227C1.6662 8.0104 2.5908 8.6869 3.6438 8.7064C2.772 9.38101 1.695 9.74732 0.5862 9.74614C0.3906 9.74555 0.195 9.73431 0 9.71128C1.1262 10.4225 2.436 10.8 3.774 10.7982" fill="#858699"/>
</svg>
