<?xml version="1.0" encoding="UTF-8" standalone="no"?>
<svg
   width="128"
   height="128"
   viewBox="0 0 128 128"
   fill="none"
   version="1.1"
   id="svg52"
   sodipodi:docname="logo-cosmos.svg"
   inkscape:export-filename="../../../../static/icons/icon2-48x48.png"
   inkscape:export-xdpi="38.400002"
   inkscape:export-ydpi="38.400002"
   inkscape:version="1.3.2 (091e20e, 2023-11-25)"
   xmlns:inkscape="http://www.inkscape.org/namespaces/inkscape"
   xmlns:sodipodi="http://sodipodi.sourceforge.net/DTD/sodipodi-0.dtd"
   xmlns="http://www.w3.org/2000/svg"
   xmlns:svg="http://www.w3.org/2000/svg">
  <sodipodi:namedview
     id="namedview52"
     pagecolor="#ffffff"
     bordercolor="#000000"
     borderopacity="0.25"
     inkscape:showpageshadow="2"
     inkscape:pageopacity="0.0"
     inkscape:pagecheckerboard="0"
     inkscape:deskcolor="#d1d1d1"
     inkscape:zoom="1.84375"
     inkscape:cx="63.728814"
     inkscape:cy="64"
     inkscape:window-width="1440"
     inkscape:window-height="819"
     inkscape:window-x="0"
     inkscape:window-y="25"
     inkscape:window-maximized="0"
     inkscape:current-layer="svg52" />
  <g
     clipPath="url(#clip0_821_15541)"
     id="g52"
     transform="matrix(0.90625,0,0,0.90624823,6,6.0000001)">
    <path
       fill-rule="evenodd"
       clip-rule="evenodd"
       d="M 61.7127,0.0893555 C 66.083,0.247936 70.4402,0.561448 74.7834,1.02987 77.0438,3.02663 77.1997,5.22119 75.2503,7.61349 72.2141,10.7764 68.9464,13.598 65.4472,16.0781 63.916,11.5973 62.3606,6.73796 60.7791,1.50013 61.2981,1.14031 61.609,0.670049 61.7127,0.0893555 Z"
       fill="#575bc7"
       id="path1" />
    <path
       fill-rule="evenodd"
       clip-rule="evenodd"
       d="M 61.7127,0.0894453 C 61.609,0.670139 61.2981,1.1404 60.779,1.50022 c 1.5816,5.23783 3.137,10.09718 4.6682,14.57798 -2.2277,2.389 -4.8726,4.2701 -7.9359,5.6431 C 52.6873,20.3106 47.8642,18.8998 43.0401,17.489 41.8936,16.7563 40.96,15.8158 40.2393,14.6675 41.4436,11.4557 42.9991,8.47744 44.9074,5.73255 49.6185,1.43347 55.2202,-0.447562 61.7127,0.0894453 Z"
       fill="#575bc7"
       id="path2" />
    <path
       fill-rule="evenodd"
       clip-rule="evenodd"
       d="m 81.319,1.97024 c 5.26,-0.11485 9.9282,1.45272 14.0044,4.70258 5.6876,6.17038 4.4431,9.77568 -3.7345,10.81598 C 87.804,14.9551 83.7576,12.9173 79.4517,11.3754 78.0681,7.82655 78.6899,4.69153 81.319,1.97024 Z"
       fill="#575bc7"
       id="path3" />
    <path
       fill-rule="evenodd"
       clip-rule="evenodd"
       d="m 41.1732,5.73251 c -1.6526,9.51919 -6.9434,12.65429 -15.8717,9.40519 -0.1391,-0.9894 0.0159,-1.93 0.4668,-2.8216 2.8271,-4.27161 6.7165,-6.77969 11.6704,-7.52411 1.4424,0.01016 2.6869,0.32373 3.7345,0.94052 z"
       fill="#575bc7"
       id="path4" />
    <path
       fill-rule="evenodd"
       clip-rule="evenodd"
       d="m 105.593,13.2568 c 3.479,1.3663 5.657,3.8744 6.536,7.5242 0.122,0.6949 -0.034,1.322 -0.467,1.881 -2.571,-1.5306 -5.217,-2.9414 -7.936,-4.2323 -1.545,-1.3584 -2.168,-3.0827 -1.867,-5.1729 1.244,0 2.49,0 3.734,0 z"
       fill="#575bc7"
       id="path5" />
    <path
       fill-rule="evenodd"
       clip-rule="evenodd"
       d="m 23.4339,17.9598 c 2.2006,-0.1536 4.3787,0.0032 6.5354,0.4703 1.7832,0.384 2.7168,1.4812 2.8009,3.2918 -1.463,6.4083 -4.5748,11.7379 -9.3363,15.9888 -1.2342,0.1599 -2.3238,-0.1537 -3.2677,-0.9405 -1.3463,-5.6791 -1.5022,-11.3222 -0.4668,-16.9293 0.7348,-1.5088 1.9793,-2.1359 3.7345,-1.8811 z"
       fill="#575bc7"
       id="path6" />
    <path
       fill-rule="evenodd"
       clip-rule="evenodd"
       d="m 113.996,27.3647 c 4.086,0.8022 7.354,2.9968 9.803,6.5837 2.834,4.7536 2.989,9.4562 0.467,14.1077 -2.178,0 -4.357,0 -6.536,0 -2.639,-5.015 -4.506,-10.3446 -5.601,-15.9888 0.367,-1.6777 0.988,-3.2452 1.867,-4.7026 z"
       fill="#575bc7"
       id="path7" />
    <path
       fill-rule="evenodd"
       clip-rule="evenodd"
       d="m 19.6996,19.8403 c -1.0354,5.6072 -0.8795,11.2503 0.4668,16.9293 0.9439,0.7869 2.0334,1.1004 3.2677,0.9406 -2.6553,0.9885 -5.4561,0.9885 -8.4027,0 -3.5029,-2.1152 -4.5925,-5.2503 -3.2677,-9.4052 1.5564,-2.1945 3.1118,-4.3891 4.6682,-6.5836 0.7618,-1.2442 1.8514,-1.8711 3.2677,-1.8811 z"
       fill="#575bc7"
       id="path8" />
    <path
       fill-rule="evenodd"
       clip-rule="evenodd"
       d="m 112.129,32.0669 c 1.095,5.6441 2.962,10.9738 5.601,15.9888 -4.012,-0.6579 -8.058,-0.9714 -12.137,-0.9405 1.174,-5.4961 3.353,-10.5123 6.536,-15.0483 z"
       fill="#575bc7"
       id="path9" />
    <path
       fill-rule="evenodd"
       clip-rule="evenodd"
       d="m 13.1641,38.6505 c 2.0923,1.054 4.2714,2.1513 6.5354,3.2918 0.4397,6.8398 -1.2716,13.2666 -5.1349,19.2806 -0.9439,0.7868 -2.0335,1.1004 -3.2677,0.9405 C 7.96009,55.2461 6.40373,48.0354 6.62874,40.5315 8.47638,38.9632 10.6545,38.3362 13.1641,38.6505 Z"
       fill="#575bc7"
       id="path10" />
    <path
       fill-rule="evenodd"
       clip-rule="evenodd"
       d="M 6.62865,40.5317 C 6.40365,48.0357 7.96,55.2463 11.2968,62.1636 6.04607,60.9453 2.62246,57.8102 1.02689,52.7585 0.645042,47.5746 2.51229,43.4991 6.62865,40.5317 Z"
       fill="#575bc7"
       id="path11" />
    <path
       fill-rule="evenodd"
       clip-rule="evenodd"
       d="m 26.2349,41.4722 c 2.2995,0.2643 4.3227,1.2049 6.0686,2.8215 3.8073,13.4049 -1.0167,19.675 -14.4712,18.8104 2.2453,-7.4104 5.0462,-14.621 8.4026,-21.6319 z"
       fill="#575bc7"
       id="path12" />
    <path
       fill-rule="evenodd"
       clip-rule="evenodd"
       d="m 86.9205,49.937 c 3.7858,-0.3049 7.5203,0.0085 11.2035,0.9405 C 94.3755,54.6514 90.3301,58.1 85.9869,61.2232 84.6975,60.7533 84.0757,59.8128 84.1196,58.4016 84.6284,55.4 85.5621,52.5784 86.9205,49.937 Z"
       fill="#575bc7"
       id="path13" />
    <path
       fill-rule="evenodd"
       clip-rule="evenodd"
       d="m 117.73,50.8777 c 2.217,1.7882 2.373,3.9827 0.467,6.5836 -2.732,3.0209 -6,5.2155 -9.803,6.5837 -1.754,0.1004 -2.065,-0.3699 -0.933,-1.4108 -1.676,-3.6201 -2.922,-7.3821 -3.735,-11.2862 4.658,-0.4696 9.326,-0.6263 14.004,-0.4703 z"
       fill="#575bc7"
       id="path14" />
    <path
       fill-rule="evenodd"
       clip-rule="evenodd"
       d="m 70.1154,48.9964 c 3.4432,0.2644 6.8668,0.7346 10.2699,1.4108 3.5785,7.6731 1.0886,12.2189 -7.4691,13.6374 -1.5162,0.1316 -2.6048,-0.4953 -3.2676,-1.881 -0.9449,-4.1219 -2.0344,-8.1974 -3.2677,-12.2267 1.11,-0.8735 2.3546,-1.1869 3.7345,-0.9405 z"
       fill="#575bc7"
       id="path15" />
    <path
       fill-rule="evenodd"
       clip-rule="evenodd"
       d="m 36.5049,44.2942 c 4.0511,-0.615 7.6306,0.3255 10.7367,2.8215 0.2419,3.4282 -1.1586,6.093 -4.2013,7.9944 -4.9734,1.1134 -7.7743,-0.9243 -8.4026,-6.1133 0.3753,-1.6932 0.998,-3.2606 1.8672,-4.7026 z"
       fill="#575bc7"
       id="path16" />
    <path
       fill-rule="evenodd"
       clip-rule="evenodd"
       d="m 91.5887,24.543 c -0.1662,1.1237 -0.4771,2.221 -0.9336,3.2918 1.8495,5.7621 3.5608,11.562 5.1349,17.3995 0.3893,1.1813 1.167,1.8083 2.3341,1.8811 -11.1223,3.6949 -15.9454,-0.3807 -14.4712,-12.2267 2.6636,-3.5133 5.3095,-6.9618 7.9358,-10.3457 z"
       fill="#575bc7"
       id="path17" />
    <path
       fill-rule="evenodd"
       clip-rule="evenodd"
       d="m 71.9828,39.5912 c 2.2005,-0.1536 4.3787,0.0032 6.5353,0.4702 1.6722,2.2704 3.2276,4.6217 4.6682,7.0539 -0.4668,0.3135 -0.9336,0.6271 -1.4005,0.9405 -4.3152,-0.961 -8.5165,-2.215 -12.6039,-3.762 0.7095,-1.7498 1.6432,-3.3172 2.8009,-4.7026 z"
       fill="#575bc7"
       id="path18" />
    <path
       fill-rule="evenodd"
       clip-rule="evenodd"
       d="m 54.2437,33.9483 c 5.1396,-0.2088 9.3409,1.6722 12.6039,5.6431 0.6078,1.6318 0.4528,3.1993 -0.4668,4.7025 -4.1584,3.3584 -8.8265,5.0827 -14.0044,5.1729 -2.3994,-1.9443 -4.2667,-4.2956 -5.6017,-7.0539 2.5105,-2.8402 5.0005,-5.6617 7.469,-8.4646 z"
       fill="#575bc7"
       id="path19" />
    <path
       fill-rule="evenodd"
       clip-rule="evenodd"
       d="m 35.5709,23.6025 c 1.0999,4.8856 2.3444,9.7449 3.7346,14.5781 0.1717,1.2937 0.7945,2.0775 1.8672,2.3512 -2.9316,1.073 -6.0434,1.2298 -9.3363,0.4703 -2.4152,-1.4344 -3.193,-3.4721 -2.334,-6.1134 2.7094,-3.4803 4.7316,-7.2424 6.0685,-11.2862 z"
       fill="#575bc7"
       id="path20" />
    <path
       fill-rule="evenodd"
       clip-rule="evenodd"
       d="M 41.1729,40.5318 C 40.1002,40.258 39.4774,39.4742 39.3057,38.1805 37.9155,33.3473 36.671,28.488 35.5712,23.6025 c -0.3221,-2.8103 0.9224,-4.0643 3.7345,-3.7621 5.0751,1.2338 9.8983,3.1148 14.4712,5.6431 -0.8973,7.6569 -5.0986,12.673 -12.604,15.0483 z"
       fill="#575bc7"
       id="path21" />
    <path
       fill-rule="evenodd"
       clip-rule="evenodd"
       d="m 72.9161,16.0781 c 1.3341,4.0551 2.5786,8.4442 3.7345,13.1673 1.8934,0.9866 3.7606,1.9271 5.6017,2.8215 -3.7186,5.6495 -8.6986,7.0603 -14.938,4.2323 -3.3498,-2.2359 -6.6175,-4.5871 -9.8031,-7.0538 -0.6386,-1.2076 -0.4826,-2.3048 0.4669,-3.2918 5.1386,-3.156 10.1177,-6.4478 14.938,-9.8755 z"
       fill="#575bc7"
       id="path22" />
    <path
       fill-rule="evenodd"
       clip-rule="evenodd"
       d="m 98.1243,47.1153 c -1.1671,-0.0728 -1.9448,-0.6997 -2.3341,-1.881 -1.5741,-5.8375 -3.2854,-11.6374 -5.1349,-17.3996 0.4565,-1.0708 0.7674,-2.1681 0.9336,-3.2918 1.4144,-2.683 3.5926,-4.2506 6.5354,-4.7026 5.0637,0.8303 9.4207,2.8681 13.0707,6.1134 -2.595,6.5864 -5.551,13.0133 -8.869,19.2806 -1.037,1.4454 -2.4372,2.0724 -4.2017,1.881 z"
       fill="#575bc7"
       id="path23" />
    <path
       fill-rule="evenodd"
       clip-rule="evenodd"
       d="m 82.2525,32.0672 c -1.8411,-0.8945 -3.7083,-1.835 -5.6017,-2.8216 -1.1559,-4.7231 -2.4004,-9.1122 -3.7345,-13.1672 0.6992,-1.6423 1.9447,-2.5829 3.7345,-2.8216 13.7915,2.9201 15.6587,9.1902 5.6017,18.8104 z"
       fill="#575bc7"
       id="path24" />
    <path
       fill-rule="evenodd"
       clip-rule="evenodd"
       d="m 47.7084,71.5686 c -0.5761,-0.1041 -1.0429,-0.4176 -1.4005,-0.9405 -1.4695,-4.5937 -2.2472,-9.2963 -2.334,-14.1078 7.7584,-6.0602 12.8934,-4.1792 15.4048,5.6431 0.9719,2.9498 0.1933,5.3011 -2.3341,7.0539 -3.1033,0.8867 -6.2151,1.6704 -9.3362,2.3513 z"
       fill="#575bc7"
       id="path25" />
    <path
       fill-rule="evenodd"
       clip-rule="evenodd"
       d="m 127.067,50.8774 c 1.244,3.1351 1.244,6.2702 0,9.4052 -2.276,-0.363 -4.143,-1.4603 -5.602,-3.2918 0.932,-3.0228 2.799,-5.0605 5.602,-6.1134 z"
       fill="#575bc7"
       id="path26" />
    <path
       fill-rule="evenodd"
       clip-rule="evenodd"
       d="m 70.1154,48.9961 c -1.3799,-0.2464 -2.6245,0.0671 -3.7345,0.9405 1.2333,4.0293 2.3228,8.1048 3.2676,12.2268 0.6629,1.3856 1.7515,2.0126 3.2677,1.881 -3.08,1.8655 -6.5036,2.806 -10.2698,2.8215 -1.0242,-4.7963 -2.1128,-9.4989 -3.2677,-14.1077 2.6515,-4.4567 6.23,-5.7106 10.7367,-3.7621 z"
       fill="#575bc7"
       id="path27" />
    <path
       fill-rule="evenodd"
       clip-rule="evenodd"
       d="m 43.9739,56.5205 c 0.0869,4.8115 0.8646,9.5141 2.3341,14.1078 0.3576,0.5229 0.8244,0.8364 1.4004,0.9405 -2.7467,1.7942 -5.8594,2.7347 -9.3362,2.8215 -2.0475,0.1635 -3.7597,-0.4636 -5.135,-1.881 -1.1922,-3.383 -1.5031,-6.8315 -0.9336,-10.3457 3.3704,-2.9294 7.2608,-4.8105 11.6703,-5.6431 z"
       fill="#575bc7"
       id="path28" />
    <path
       fill-rule="evenodd"
       clip-rule="evenodd"
       d="m 117.73,50.8771 c -4.678,-0.156 -9.346,7e-4 -14.004,0.4703 0.813,3.9041 2.059,7.6661 3.735,11.2862 -1.132,1.0409 -0.821,1.5112 0.933,1.4107 -5.544,3.1089 -11.1454,6.244 -16.8051,9.4052 -2.6842,-2.9081 -3.7728,-6.3567 -3.2677,-10.3457 4.2312,-4.5776 8.7444,-8.8099 13.5378,-12.6969 5.461,-0.7698 10.751,-0.613 15.871,0.4702 z"
       fill="#575bc7"
       id="path29" />
    <path
       fill-rule="evenodd"
       clip-rule="evenodd"
       d="M 1.96059,80.0335 C 0.367827,73.8895 -0.253968,67.6193 0.0933411,61.2231 3.03146,61.4457 5.83234,62.2294 8.49598,63.5744 9.92629,64.2323 10.8599,65.3296 11.2969,66.8662 9.47908,72.0473 7.30093,77.0633 4.76147,81.9145 3.81104,81.2632 2.87741,80.6362 1.96059,80.0335 Z"
       fill="#575bc7"
       id="path30" />
    <path
       fill-rule="evenodd"
       clip-rule="evenodd"
       d="m 126.133,74.3904 c 0,0.3134 0,0.627 0,0.9405 -1.31,5.2093 -3.177,10.2255 -5.602,15.0482 -0.674,-0.3931 -1.141,-1.0195 -1.4,-1.881 -0.311,0.9405 -0.623,1.881 -0.934,2.8216 -2.778,-6.2836 -4.801,-12.8672 -6.068,-19.7509 0.838,-2.7898 2.083,-5.4545 3.734,-7.9944 3.144,-2.8911 6.411,-3.0479 9.803,-0.4702 0.466,3.749 0.622,7.5111 0.467,11.2862 z"
       fill="#575bc7"
       id="path31" />
    <path
       fill-rule="evenodd"
       clip-rule="evenodd"
       d="m 15.9651,65.9254 c 4.2938,-0.2821 8.4951,0.0314 12.604,0.9406 1.4882,6.8269 -1.1568,11.216 -7.9358,13.1672 -0.9299,0.0807 -1.7077,-0.2329 -2.3341,-0.9405 -0.4342,-3.6618 -1.5228,-7.1104 -3.2677,-10.3457 0.5854,-0.8623 0.8972,-1.8028 0.9336,-2.8216 z"
       fill="#575bc7"
       id="path32" />
    <path
       fill-rule="evenodd"
       clip-rule="evenodd"
       d="m 71.983,67.8066 c -0.45,0.8618 -0.7609,1.8024 -0.9336,2.8216 2.0269,5.9927 3.8941,11.9494 5.6017,17.8698 -4.838,8.7289 -9.6621,8.7289 -14.4712,0 -0.6227,-5.3296 -0.6227,-10.6591 0,-15.9888 2.9615,-2.1972 6.2292,-3.7647 9.8031,-4.7026 z"
       fill="#575bc7"
       id="path33" />
    <path
       fill-rule="evenodd"
       clip-rule="evenodd"
       d="M 76.6508,88.498 C 74.9432,82.5775 73.076,76.6208 71.0491,70.6282 c 0.1727,-1.0193 0.4836,-1.9598 0.9336,-2.8216 12.3892,-5.2421 16.9014,-1.1665 13.5376,12.2267 -2.8345,3.0138 -5.7913,5.8354 -8.8695,8.4647 z"
       fill="#575bc7"
       id="path34" />
    <path
       fill-rule="evenodd"
       clip-rule="evenodd"
       d="m 98.1241,97.9032 c -1.6693,0.268 -3.2257,-0.0452 -4.6681,-0.9405 -1.4789,-5.6883 -3.0352,-11.0183 -4.6682,-15.9888 5.6709,-5.5334 12.2062,-9.9225 19.6062,-13.1673 0.311,0.3135 0.623,0.6271 0.934,0.9406 -3.902,7.3314 -5.614,15.1691 -5.135,23.5129 -0.704,3.3755 -2.727,5.2565 -6.0689,5.6431 z"
       fill="#575bc7"
       id="path35" />
    <path
       fill-rule="evenodd"
       clip-rule="evenodd"
       d="m 42.107,76.271 c -0.8758,4.993 0.0579,9.6956 2.8008,14.1077 2.0942,0.9161 4.2723,1.2302 6.5354,0.9406 -3.8708,0.8916 -7.9171,1.5189 -12.1371,1.881 -2.0475,0.1637 -3.7597,-0.4637 -5.135,-1.881 -0.6227,-4.0756 -0.6227,-8.1512 0,-12.2268 2.3266,-1.8783 4.9716,-2.8188 7.9359,-2.8215 z"
       fill="#575bc7"
       id="path36" />
    <path
       fill-rule="evenodd"
       clip-rule="evenodd"
       d="m 51.443,91.3196 c -2.2631,0.2897 -4.4413,-0.0244 -6.5354,-0.9405 -2.743,-4.4122 -3.6766,-9.1147 -2.8009,-14.1078 4.3246,-1.247 8.6818,-2.501 13.0708,-3.762 3.418,1.2283 4.9743,3.7364 4.6681,7.5241 0.3128,6.3145 -2.4881,10.0767 -8.4026,11.2862 z"
       fill="#575bc7"
       id="path37" />
    <path
       fill-rule="evenodd"
       clip-rule="evenodd"
       d="m 15.9651,65.9258 c -0.0364,1.0187 -0.3482,1.9593 -0.9336,2.8215 1.745,3.2353 2.8336,6.6839 3.2677,10.3457 0.6265,0.7077 1.4042,1.0212 2.3341,0.9405 -3.854,3.1955 -8.2113,5.39 -13.0708,6.5837 0.73476,-4.8865 2.1352,-9.5891 4.2013,-14.1078 0.9579,-2.5758 2.3584,-4.7703 4.2013,-6.5836 z"
       fill="#575bc7"
       id="path38" />
    <path
       fill-rule="evenodd"
       clip-rule="evenodd"
       d="m 25.3013,104.487 c -1.2044,-0.525 -1.9821,-1.466 -2.3341,-2.822 -1.6861,-5.5845 -3.0866,-11.2276 -4.2013,-16.9291 2.6403,-1.8529 5.4411,-3.5771 8.4026,-5.1728 1.1988,-0.6431 2.2883,-0.4863 3.2677,0.4703 0.4593,6.0369 1.0811,11.9934 1.8672,17.8698 -1.0848,3.5938 -3.4189,5.7878 -7.0021,6.5838 z"
       fill="#575bc7"
       id="path39" />
    <path
       fill-rule="evenodd"
       clip-rule="evenodd"
       d="m 88.7879,80.9741 c 1.6329,4.9706 3.1892,10.3006 4.6681,15.9888 1.4424,0.8954 2.9988,1.2086 4.6681,0.9405 -1.9867,1.0619 -4.1649,1.2189 -6.5354,0.4703 -3.3461,-1.9196 -6.6138,-3.9577 -9.803,-6.1134 -0.4855,-1.6826 -0.1746,-3.2504 0.9336,-4.7026 2.0381,-2.2639 4.0613,-4.4584 6.0686,-6.5836 z"
       fill="#575bc7"
       id="path40" />
    <path
       fill-rule="evenodd"
       clip-rule="evenodd"
       d="m 112.129,71.5688 c 1.267,6.8837 3.29,13.4673 6.068,19.7509 0.311,-0.9405 0.623,-1.881 0.934,-2.8216 0.259,0.8616 0.726,1.4879 1.4,1.8811 -2.006,2.1124 -4.496,3.5232 -7.469,4.2323 -2.099,0.8117 -3.811,0.3414 -5.135,-1.4108 -1.504,-7.8994 -0.103,-15.11 4.202,-21.6319 z"
       fill="#575bc7"
       id="path41" />
    <path
       fill-rule="evenodd"
       clip-rule="evenodd"
       d="m 18.766,84.7358 c 1.1148,5.7015 2.5152,11.3446 4.2014,16.9292 0.3519,1.356 1.1296,2.297 2.334,2.822 -0.7375,0.847 -1.6712,1.474 -2.8009,1.881 -3.7793,0.055 -6.7361,-1.513 -8.8694,-4.703 C 12.3044,99.3054 10.7481,97.1102 8.96297,95.0815 8.50549,93.8654 8.34958,92.6108 8.49616,91.3195 11.761,88.8901 15.1847,86.6955 18.766,84.7358 Z"
       fill="#575bc7"
       id="path42" />
    <path
       fill-rule="evenodd"
       clip-rule="evenodd"
       d="m 53.3101,94.1409 c 5.5607,-0.5239 10.3847,1.044 14.4712,4.7026 0.7908,6.6095 1.4135,13.1935 1.8672,19.7505 -1.1016,1.114 -2.5021,1.741 -4.2013,1.881 -1.912,-0.161 -3.7793,-0.475 -5.6017,-0.94 -3.3331,-7.126 -5.8231,-14.651 -7.469,-22.5726 0.1727,-1.0195 0.4836,-1.96 0.9336,-2.8215 z"
       fill="#575bc7"
       id="path43" />
    <path
       fill-rule="evenodd"
       clip-rule="evenodd"
       d="m 116.797,100.725 c -1.53,3.423 -4.019,5.93 -7.469,7.524 -0.93,0.081 -1.708,-0.233 -2.334,-0.94 -0.955,-7.3524 2.312,-11.1144 9.803,-11.2865 0,1.5678 0,3.1347 0,4.7025 z"
       fill="#575bc7"
       id="path44" />
    <path
       fill-rule="evenodd"
       clip-rule="evenodd"
       d="m 81.3189,96.0222 c -0.8318,0.7157 -1.4546,1.6562 -1.8672,2.8215 1.0242,4.9773 2.5805,9.6803 4.6681,14.1073 -3.1248,2.198 -6.5485,2.824 -10.2699,1.882 -2.2855,-5.577 -2.7523,-11.22 -1.4004,-16.9298 2.559,-3.7555 5.5158,-4.3828 8.8694,-1.881 z"
       fill="#575bc7"
       id="path45" />
    <path
       fill-rule="evenodd"
       clip-rule="evenodd"
       d="m 81.3189,96.0225 c 4.2854,1.991 8.0199,4.6555 11.2035,7.9945 -0.9616,2.408 -2.0512,4.759 -3.2677,7.054 -1.4788,1.28 -3.1911,1.907 -5.1349,1.881 -2.0876,-4.428 -3.644,-9.131 -4.6681,-14.108 0.4126,-1.1653 1.0354,-2.1058 1.8672,-2.8215 z"
       fill="#575bc7"
       id="path46" />
    <path
       fill-rule="evenodd"
       clip-rule="evenodd"
       d="m 53.3102,94.1416 c -0.4501,0.8615 -0.7609,1.802 -0.9337,2.8216 1.646,7.9218 4.136,15.4458 7.469,22.5728 -10.6853,-0.442 -18.932,-5.145 -24.7411,-14.108 -0.9719,-2.95 -0.1932,-5.301 2.3341,-7.0541 5.0192,-2.4218 10.3091,-3.8326 15.8717,-4.2323 z"
       fill="#575bc7"
       id="path47" />
    <path
       fill-rule="evenodd"
       clip-rule="evenodd"
       d="m 31.8368,107.308 c 6.7193,2.886 9.5202,7.903 8.4026,15.049 -1.5348,0.201 -2.9353,-0.113 -4.2013,-0.941 -0.3361,-1.982 -0.9588,-3.863 -1.8672,-5.643 -0.3109,1.254 -0.6228,2.508 -0.9337,3.762 -0.6227,1.254 -1.2445,1.254 -1.8672,0 -0.8179,-3.842 -1.9065,-7.604 -3.2677,-11.286 1.1101,-0.874 2.3546,-1.187 3.7345,-0.941 z"
       fill="#575bc7"
       id="path48" />
    <path
       fill-rule="evenodd"
       clip-rule="evenodd"
       d="m 102.792,111.07 c -1.293,2.242 -3.1602,3.809 -5.6016,4.703 -1.7207,-2.882 -2.1875,-6.017 -1.4004,-9.405 9.062,-11.8913 11.396,-10.3234 7.002,4.702 z"
       fill="#575bc7"
       id="path49" />
    <path
       fill-rule="evenodd"
       clip-rule="evenodd"
       d="m 31.8368,107.308 c -1.3799,-0.246 -2.6244,0.067 -3.7345,0.941 1.3612,3.682 2.4499,7.444 3.2677,11.286 0.6227,1.253 1.2445,1.253 1.8673,0 0.3109,-1.254 0.6227,-2.509 0.9336,-3.762 0.9084,1.779 1.5311,3.66 1.8672,5.643 1.266,0.827 2.6665,1.142 4.2014,0.94 0,0.628 -0.3109,0.941 -0.9337,0.941 -8.1907,-0.046 -14.4142,-3.495 -18.6725,-10.346 -0.1391,-0.989 0.0159,-1.93 0.4668,-2.821 1.7907,-0.98 3.5021,-2.077 5.135,-3.292 2.0651,-0.742 3.9324,-0.585 5.6017,0.47 z"
       fill="#575bc7"
       id="path50" />
    <path
       fill-rule="evenodd"
       clip-rule="evenodd"
       d="m 95.3235,118.595 c -6.2395,8.156 -13.7085,10.037 -22.4071,5.643 -0.1998,-1.547 0.1121,-2.957 0.9337,-4.233 5.9052,-3.054 12.1296,-4.622 18.6725,-4.702 1.7982,0.397 2.7318,1.494 2.8009,3.292 z"
       fill="#575bc7"
       id="path51" />
    <path
       fill-rule="evenodd"
       clip-rule="evenodd"
       d="m 70.1157,125.178 c 1.1894,0.648 1.1894,1.433 0,2.352 -6.2245,0.627 -12.448,0.627 -18.6725,0 -2.9391,-0.695 -5.4291,-2.105 -7.469,-4.233 -0.2045,-1.105 0.1064,-2.045 0.9336,-2.821 8.6286,-0.106 17.0312,1.462 25.2079,4.702 z"
       fill="#575bc7"
       id="path52" />
  </g>
  <defs
     id="defs52">
    <clipPath
       id="clip0_821_15541">
      <rect
         width="128"
         height="128"
         fill="white"
         id="rect52" />
    </clipPath>
  </defs>
</svg>
